{"title":"Ted.2.2015.CAM.x264-MenaceIISociety","uid":12154383,"size":928821612,"categoryP":"video","categoryS":"movies","magnet":"?xt=urn:btih:f87eed7b1f60ebf940e9e77155d2b996b4591c40&amp;dn=Ted.2.2015.CAM.x264-MenaceIISociety&amp;tr=udp%3A%2F%2Ftracker.openbittorrent.com%3A80&amp;tr=udp%3A%2F%2Fopen.demonii.com%3A1337&amp;tr=udp%3A%2F%2Ftracker.coppersurfer.tk%3A6969&amp;tr=udp%3A%2F%2Fexodus.desync.com%3A6969","seeders":0,"leechers":0,"uploader":"TvTeam","files":4,"time":1437734903,"description":"------------------------------------------------------------------------\n\n &lt;a href=&quot; https://www.torrenting.com&quot; rel=&quot;nofollow&quot; target=&quot;_NEW&quot;&gt; https://www.torrenting.com&lt;/a&gt;\n\nSign up is OPEN - for time being. Come and have fun\n\n.......................................................................................................................[img]http://s1.postimg.org/n5786kvzz/ted_movie_poster1.jpg[/img]\n\nTed.2.2015.CAM.x264-MenaceIISociety &lt;a href=&quot;\nhttp://www.imdb.com/title/tt2637276/&quot; rel=&quot;nofollow&quot; target=&quot;_NEW&quot;&gt;\nhttp://www.imdb.com/title/tt2637276/&lt;/a&gt;\n\nSource: MRG [THANKS]\n\nCut the cam into 4 parts, start, middle, end, aftercredits. fixed perspective, crop, resize, had to add borders to parts 1, 3 and 4 tho to keep the resolution the same as the hdcam part which is the majority, then appended all back together. all in sync. pity it wasnt the full hd source but oh well. included screens from all 4 parts below.\n\nGeneral\nComplete name                            : Ted.2.2015.CAM.x264-MenaceIISociety.mp4\nFormat                                   : MPEG-4\nFormat profile                           : Base Media\nCodec ID                                 : isom\nFile size                                : 871 MiB\nDuration                                 : 1h 48mn\nOverall bit rate mode                    : Variable\nOverall bit rate                         : 1 119 Kbps\nEncoded date                             : UTC 2015-06-29 23:49:53\nTagged date                              : UTC 2015-06-29 23:49:53\n\nVideo\nID                                       : 1\nFormat                                   : AVC\nFormat/Info                              : Advanced Video Codec\nFormat profile                           : &lt;a class=&quot;__cf_email__&quot; href=&quot;/cdn-cgi/l/email-protection&quot; data-cfemail=&quot;89c1e0eee1c9c5bda7b8&quot;&gt;[email&amp;#160;protected]&lt;/a&gt;&lt;script data-cfhash='f9e31' type=&quot;text/javascript&quot;&gt;\n/* &lt;![CDATA[ */!function(){try{var t=&quot;currentScript&quot;in document?document.currentScript:function(){for(var t=document.getElementsByTagName(&quot;script&quot;),e=t.length;e--;)if(t[e].getAttribute(&quot;data-cfhash&quot;))return t[e]}();if(t&amp;&amp;t.previousSibling){var e,r,n,i,c=t.previousSibling,a=c.getAttribute(&quot;data-cfemail&quot;);if(a){for(e=&quot;&quot;,r=parseInt(a.substr(0,2),16),n=2;a.length-n;n+=2)i=parseInt(a.substr(n,2),16)^r,e+=String.fromCharCode(i);e=document.createTextNode(e),c.parentNode.replaceChild(e,c)}t.parentNode.removeChild(t);}}catch(u){}}()/* ]]&gt; */&lt;/script&gt;\nFormat settings, CABAC                   : Yes\nFormat settings, ReFrames                : 3 frames\nCodec ID                                 : avc1\nCodec ID/Info                            : Advanced Video Coding\nDuration                                 : 1h 48mn\nSource duration                          : 1h 48mn\nBit rate mode                            : Variable\nBit rate                                 : 1 031 Kbps\nMaximum bit rate                         : 40.0 Mbps\nWidth                                    : 720 pixels\nHeight                                   : 272 pixels\nDisplay aspect ratio                     : 2.647\nFrame rate mode                          : Constant\nFrame rate                               : 29.970 fps\nColor space                              : YUV\nChroma subsampling                       : 4:2:0\nBit depth                                : 8 bits\nScan type                                : Progressive\nBits/(Pixel*Frame)                       : 0.176\nStream size                              : 802 MiB (92%)\nSource stream size                       : 802 MiB (92%)\nWriting library                          : x264 core 146 r2538 121396c\n\nAudio\nID                                       : 2\nFormat                                   : AAC\nFormat/Info                              : Advanced Audio Codec\nFormat profile                           : LC\nCodec ID                                 : 40\nDuration                                 : 1h 48mn\nBit rate mode                            : Variable\nBit rate                                 : 83.7 Kbps\nMaximum bit rate                         : 91.9 Kbps\nChannel(s)                               : 2 channels\nChannel positions                        : Front: L R\nSampling rate                            : 44.1 KHz\nCompression mode                         : Lossy\nStream size                              : 65.1 MiB (7%)\nEncoded date                             : UTC 2015-06-29 21:39:48\nTagged date                              : UTC 2015-06-29 23:50:20\n\n[img]http://s24.postimg.org/bb4sl2rid/vlcsnap_2015_06_30_01h55m15s318.jpg[/img]\n[img]http://s24.postimg.org/4ale61f45/vlcsnap_2015_06_30_01h55m42s648.jpg[/img]\n[img]http://s24.postimg.org/udo6802it/vlcsnap_2015_06_30_01h56m25s805.jpg[/img]\n[img]http://s24.postimg.org/cu4s3sngl/vlcsnap_2015_06_30_01h57m08s028.jpg[/img]\n[img]http://s24.postimg.org/dm7g2zrnp/vlcsnap_2015_06_30_02h02m29s882.jpg[/img]\n[img]http://s24.postimg.org/fphvanrgl/vlcsnap_2015_06_30_02h03m50s646.jpg[/img]\n[img]http://s24.postimg.org/y18irt03p/vlcsnap_2015_06_30_02h05m15s216.jpg[/img]\n[img]http://s24.postimg.org/lszfukhqd/vlcsnap_2015_06_30_02h06m26s836.jpg[/img] \n\n[img]http://s17.postimg.org/r1iiyw8yn/Untitled_1.png[/img]","torrent":{"xt":"urn:btih:f87eed7b1f60ebf940e9e77155d2b996b4591c40","amp;dn":"Ted.2.2015.CAM.x264-MenaceIISociety","amp;tr":["udp%3A%2F%2Ftracker.openbittorrent.com%3A80","udp%3A%2F%2Fopen.demonii.com%3A1337","udp%3A%2F%2Ftracker.coppersurfer.tk%3A6969","udp%3A%2F%2Fexodus.desync.com%3A6969"],"infoHash":"f87eed7b1f60ebf940e9e77155d2b996b4591c40","infoHashBuffer":{"type":"Buffer","data":[248,126,237,123,31,96,235,249,64,233,231,113,85,210,185,150,180,89,28,64]},"announce":[],"urlList":[]}}